<svg xmlns="http://www.w3.org/2000/svg" version="1.1" xmlnsXlink="http://www.w3.org/1999/xlink" xmlnsSvgjs="http://svgjs.com/svgjs" width="2000" height="800" preserveAspectRatio="none" viewBox="0 0 2000 800"><g mask="url(&quot;#SvgjsMask1171&quot;)" fill="none"><rect width="2000" height="800" x="0" y="0" fill="rgba(0, 53, 101, 1)"></rect><path d="M0,881.286C172.376,921.309,361.605,889.8,513.61,799.193C667.825,707.269,806.05,559.123,837.119,382.299C866.957,212.482,715.406,70.124,670.984,-96.473C633.518,-236.982,664.681,-388.664,597.199,-517.476C518.64,-667.433,425.73,-852.415,259.153,-882.595C90.246,-913.197,-40.557,-737.706,-194.037,-660.83C-316.045,-599.718,-436.369,-551.791,-550.529,-477.036C-707.072,-374.527,-954.636,-326.222,-986.58,-141.849C-1018.243,40.906,-805.755,171.05,-687.581,314.008C-597.799,422.619,-488.932,501.979,-380.235,591.658C-254.796,695.149,-158.406,844.507,0,881.286" fill="#002e57"></path><path d="M2000 1587.3020000000001C2159.424 1602.481 2332.864 1614.146 2466.727 1526.242 2600.254 1438.559 2634.5190000000002 1265.221 2707.143 1122.941 2783.508 973.331 2922.366 836.999 2903.746 670.061 2885.063 502.559 2737.3630000000003 382.343 2611.976 269.71900000000005 2498.565 167.85199999999998 2369.751 76.10799999999995 2218.8 54.833999999999946 2077.2309999999998 34.88199999999995 1953.351 142.00400000000002 1811.156 156.85500000000002 1623.324 176.47199999999998 1414.951 53.289999999999964 1256.069 155.38 1097.483 257.28 1041.692 472.228 1027.7820000000002 660.216 1014.32 842.152 1074.5810000000001 1025.7649999999999 1180.6860000000001 1174.1680000000001 1277.0520000000001 1308.949 1439.152 1367.892 1587.096 1442.492 1720.022 1509.519 1851.801 1573.192 2000 1587.3020000000001" fill="#003c73"></path></g><defs><mask id="SvgjsMask1171"><rect width="2000" height="800" fill="#ffffff"></rect></mask></defs></svg>